<mxfile host="app.diagrams.net" agent="Mozilla/5.0 (Windows NT 10.0; Win64; x64; rv:138.0) Gecko/20100101 Firefox/138.0" version="27.0.5">
  <diagram name="Página-1" id="D6-K6J4zSOakhYxboonZ">
    <mxGraphModel dx="4901" dy="2249" grid="1" gridSize="10" guides="1" tooltips="1" connect="1" arrows="1" fold="1" page="1" pageScale="1" pageWidth="827" pageHeight="1169" math="0" shadow="0">
      <root>
        <mxCell id="0" />
        <mxCell id="1" parent="0" />
        <mxCell id="nidFudNCeoTU9eq047Zy-1" value="&amp;lt;&amp;lt;Interface Serviço&amp;gt;&amp;gt;&lt;div&gt;Bloquear Aplicativo&lt;/div&gt;" style="swimlane;fontStyle=0;childLayout=stackLayout;horizontal=1;startSize=26;fillColor=none;horizontalStack=0;resizeParent=1;resizeParentMax=0;resizeLast=0;collapsible=1;marginBottom=0;whiteSpace=wrap;html=1;" parent="1" vertex="1">
          <mxGeometry x="366.15" y="510" width="193.85" height="130" as="geometry" />
        </mxCell>
        <mxCell id="nidFudNCeoTU9eq047Zy-2" value="+ ListarAppsDisp() : VECTOR []" style="text;strokeColor=none;fillColor=none;align=left;verticalAlign=top;spacingLeft=4;spacingRight=4;overflow=hidden;rotatable=0;points=[[0,0.5],[1,0.5]];portConstraint=eastwest;whiteSpace=wrap;html=1;" parent="nidFudNCeoTU9eq047Zy-1" vertex="1">
          <mxGeometry y="26" width="193.85" height="26" as="geometry" />
        </mxCell>
        <mxCell id="nidFudNCeoTU9eq047Zy-3" value="+ AppsSel(): VECTOR []" style="text;strokeColor=none;fillColor=none;align=left;verticalAlign=top;spacingLeft=4;spacingRight=4;overflow=hidden;rotatable=0;points=[[0,0.5],[1,0.5]];portConstraint=eastwest;whiteSpace=wrap;html=1;" parent="nidFudNCeoTU9eq047Zy-1" vertex="1">
          <mxGeometry y="52" width="193.85" height="26" as="geometry" />
        </mxCell>
        <mxCell id="nidFudNCeoTU9eq047Zy-4" value="+ TempoBlock(): int" style="text;strokeColor=none;fillColor=none;align=left;verticalAlign=top;spacingLeft=4;spacingRight=4;overflow=hidden;rotatable=0;points=[[0,0.5],[1,0.5]];portConstraint=eastwest;whiteSpace=wrap;html=1;" parent="nidFudNCeoTU9eq047Zy-1" vertex="1">
          <mxGeometry y="78" width="193.85" height="26" as="geometry" />
        </mxCell>
        <mxCell id="nidFudNCeoTU9eq047Zy-9" value="+ StatusBlock(): bool" style="text;strokeColor=none;fillColor=none;align=left;verticalAlign=top;spacingLeft=4;spacingRight=4;overflow=hidden;rotatable=0;points=[[0,0.5],[1,0.5]];portConstraint=eastwest;whiteSpace=wrap;html=1;" parent="nidFudNCeoTU9eq047Zy-1" vertex="1">
          <mxGeometry y="104" width="193.85" height="26" as="geometry" />
        </mxCell>
        <mxCell id="nidFudNCeoTU9eq047Zy-5" value="&amp;lt;&amp;lt;Componente Serviço&amp;gt;&amp;gt;&lt;div&gt;Limitar Aplicativos&lt;/div&gt;" style="swimlane;fontStyle=0;childLayout=stackLayout;horizontal=1;startSize=26;fillColor=none;horizontalStack=0;resizeParent=1;resizeParentMax=0;resizeLast=0;collapsible=1;marginBottom=0;whiteSpace=wrap;html=1;" parent="1" vertex="1">
          <mxGeometry x="1530" y="455" width="270" height="130" as="geometry" />
        </mxCell>
        <mxCell id="nidFudNCeoTU9eq047Zy-6" value="+ ListarAppsDisp() : VECTOR []" style="text;strokeColor=none;fillColor=none;align=left;verticalAlign=top;spacingLeft=4;spacingRight=4;overflow=hidden;rotatable=0;points=[[0,0.5],[1,0.5]];portConstraint=eastwest;whiteSpace=wrap;html=1;" parent="nidFudNCeoTU9eq047Zy-5" vertex="1">
          <mxGeometry y="26" width="270" height="26" as="geometry" />
        </mxCell>
        <mxCell id="nidFudNCeoTU9eq047Zy-14" value="+ AppsSel(): VECTOR []" style="text;strokeColor=none;fillColor=none;align=left;verticalAlign=top;spacingLeft=4;spacingRight=4;overflow=hidden;rotatable=0;points=[[0,0.5],[1,0.5]];portConstraint=eastwest;whiteSpace=wrap;html=1;" parent="nidFudNCeoTU9eq047Zy-5" vertex="1">
          <mxGeometry y="52" width="270" height="26" as="geometry" />
        </mxCell>
        <mxCell id="nidFudNCeoTU9eq047Zy-15" value="+ TempoLim(): int" style="text;strokeColor=none;fillColor=none;align=left;verticalAlign=top;spacingLeft=4;spacingRight=4;overflow=hidden;rotatable=0;points=[[0,0.5],[1,0.5]];portConstraint=eastwest;whiteSpace=wrap;html=1;" parent="nidFudNCeoTU9eq047Zy-5" vertex="1">
          <mxGeometry y="78" width="270" height="26" as="geometry" />
        </mxCell>
        <mxCell id="nidFudNCeoTU9eq047Zy-16" value="+ StatusLim(): bool" style="text;strokeColor=none;fillColor=none;align=left;verticalAlign=top;spacingLeft=4;spacingRight=4;overflow=hidden;rotatable=0;points=[[0,0.5],[1,0.5]];portConstraint=eastwest;whiteSpace=wrap;html=1;" parent="nidFudNCeoTU9eq047Zy-5" vertex="1">
          <mxGeometry y="104" width="270" height="26" as="geometry" />
        </mxCell>
        <mxCell id="nidFudNCeoTU9eq047Zy-10" value="&amp;lt;&amp;lt;Componente Serviço&amp;gt;&amp;gt;&lt;div&gt;Limitar Aplicativos&lt;/div&gt;" style="swimlane;fontStyle=0;childLayout=stackLayout;horizontal=1;startSize=26;fillColor=none;horizontalStack=0;resizeParent=1;resizeParentMax=0;resizeLast=0;collapsible=1;marginBottom=0;whiteSpace=wrap;html=1;" parent="1" vertex="1">
          <mxGeometry x="971" y="180" width="270" height="130" as="geometry" />
        </mxCell>
        <mxCell id="nidFudNCeoTU9eq047Zy-11" value="+ Listar app disponíveis para bloqueio&amp;nbsp;" style="text;strokeColor=none;fillColor=none;align=left;verticalAlign=top;spacingLeft=4;spacingRight=4;overflow=hidden;rotatable=0;points=[[0,0.5],[1,0.5]];portConstraint=eastwest;whiteSpace=wrap;html=1;" parent="nidFudNCeoTU9eq047Zy-10" vertex="1">
          <mxGeometry y="26" width="270" height="26" as="geometry" />
        </mxCell>
        <mxCell id="nidFudNCeoTU9eq047Zy-12" value="+ Salvar escolha dos app para bloqueio" style="text;strokeColor=none;fillColor=none;align=left;verticalAlign=top;spacingLeft=4;spacingRight=4;overflow=hidden;rotatable=0;points=[[0,0.5],[1,0.5]];portConstraint=eastwest;whiteSpace=wrap;html=1;" parent="nidFudNCeoTU9eq047Zy-10" vertex="1">
          <mxGeometry y="52" width="270" height="26" as="geometry" />
        </mxCell>
        <mxCell id="nidFudNCeoTU9eq047Zy-13" value="+ Salvar o tempo de bloqueio" style="text;strokeColor=none;fillColor=none;align=left;verticalAlign=top;spacingLeft=4;spacingRight=4;overflow=hidden;rotatable=0;points=[[0,0.5],[1,0.5]];portConstraint=eastwest;whiteSpace=wrap;html=1;" parent="nidFudNCeoTU9eq047Zy-10" vertex="1">
          <mxGeometry y="78" width="270" height="26" as="geometry" />
        </mxCell>
        <mxCell id="nidFudNCeoTU9eq047Zy-25" value="+ Bloquear o app" style="text;strokeColor=none;fillColor=none;align=left;verticalAlign=top;spacingLeft=4;spacingRight=4;overflow=hidden;rotatable=0;points=[[0,0.5],[1,0.5]];portConstraint=eastwest;whiteSpace=wrap;html=1;" parent="nidFudNCeoTU9eq047Zy-10" vertex="1">
          <mxGeometry y="104" width="270" height="26" as="geometry" />
        </mxCell>
        <mxCell id="nidFudNCeoTU9eq047Zy-17" value="&amp;lt;&amp;lt;Componente Serviço&amp;gt;&amp;gt;&lt;div&gt;Visualizar Relatórios de Uso&lt;/div&gt;" style="swimlane;fontStyle=0;childLayout=stackLayout;horizontal=1;startSize=26;fillColor=none;horizontalStack=0;resizeParent=1;resizeParentMax=0;resizeLast=0;collapsible=1;marginBottom=0;whiteSpace=wrap;html=1;" parent="1" vertex="1">
          <mxGeometry x="2465.19" y="450" width="270" height="104" as="geometry" />
        </mxCell>
        <mxCell id="nidFudNCeoTU9eq047Zy-18" value="+ AppAberto(): String" style="text;strokeColor=none;fillColor=none;align=left;verticalAlign=top;spacingLeft=4;spacingRight=4;overflow=hidden;rotatable=0;points=[[0,0.5],[1,0.5]];portConstraint=eastwest;whiteSpace=wrap;html=1;" parent="nidFudNCeoTU9eq047Zy-17" vertex="1">
          <mxGeometry y="26" width="270" height="26" as="geometry" />
        </mxCell>
        <mxCell id="nidFudNCeoTU9eq047Zy-19" value="+ AppSel(): String" style="text;strokeColor=none;fillColor=none;align=left;verticalAlign=top;spacingLeft=4;spacingRight=4;overflow=hidden;rotatable=0;points=[[0,0.5],[1,0.5]];portConstraint=eastwest;whiteSpace=wrap;html=1;" parent="nidFudNCeoTU9eq047Zy-17" vertex="1">
          <mxGeometry y="52" width="270" height="26" as="geometry" />
        </mxCell>
        <mxCell id="nidFudNCeoTU9eq047Zy-20" value="+ TempoUso(): int" style="text;strokeColor=none;fillColor=none;align=left;verticalAlign=top;spacingLeft=4;spacingRight=4;overflow=hidden;rotatable=0;points=[[0,0.5],[1,0.5]];portConstraint=eastwest;whiteSpace=wrap;html=1;" parent="nidFudNCeoTU9eq047Zy-17" vertex="1">
          <mxGeometry y="78" width="270" height="26" as="geometry" />
        </mxCell>
        <mxCell id="nidFudNCeoTU9eq047Zy-21" value="&amp;lt;&amp;lt;Componente Serviço&amp;gt;&amp;gt;&lt;div&gt;Ativar Modo de Controle Parental&lt;/div&gt;" style="swimlane;fontStyle=0;childLayout=stackLayout;horizontal=1;startSize=26;fillColor=none;horizontalStack=0;resizeParent=1;resizeParentMax=0;resizeLast=0;collapsible=1;marginBottom=0;whiteSpace=wrap;html=1;" parent="1" vertex="1">
          <mxGeometry x="3263.19" y="450" width="270" height="104" as="geometry" />
        </mxCell>
        <mxCell id="nidFudNCeoTU9eq047Zy-22" value="+ Senha(): String" style="text;strokeColor=none;fillColor=none;align=left;verticalAlign=top;spacingLeft=4;spacingRight=4;overflow=hidden;rotatable=0;points=[[0,0.5],[1,0.5]];portConstraint=eastwest;whiteSpace=wrap;html=1;" parent="nidFudNCeoTU9eq047Zy-21" vertex="1">
          <mxGeometry y="26" width="270" height="26" as="geometry" />
        </mxCell>
        <mxCell id="nidFudNCeoTU9eq047Zy-23" value="+ AppSel(): String" style="text;strokeColor=none;fillColor=none;align=left;verticalAlign=top;spacingLeft=4;spacingRight=4;overflow=hidden;rotatable=0;points=[[0,0.5],[1,0.5]];portConstraint=eastwest;whiteSpace=wrap;html=1;" parent="nidFudNCeoTU9eq047Zy-21" vertex="1">
          <mxGeometry y="52" width="270" height="26" as="geometry" />
        </mxCell>
        <mxCell id="nidFudNCeoTU9eq047Zy-24" value="+ StatusBlock(): bool" style="text;strokeColor=none;fillColor=none;align=left;verticalAlign=top;spacingLeft=4;spacingRight=4;overflow=hidden;rotatable=0;points=[[0,0.5],[1,0.5]];portConstraint=eastwest;whiteSpace=wrap;html=1;" parent="nidFudNCeoTU9eq047Zy-21" vertex="1">
          <mxGeometry y="78" width="270" height="26" as="geometry" />
        </mxCell>
        <mxCell id="nidFudNCeoTU9eq047Zy-26" value="&amp;lt;&amp;lt;Componente Serviço&amp;gt;&amp;gt;&lt;div&gt;Bloquear Aplicativos&lt;/div&gt;" style="swimlane;fontStyle=0;childLayout=stackLayout;horizontal=1;startSize=26;fillColor=none;horizontalStack=0;resizeParent=1;resizeParentMax=0;resizeLast=0;collapsible=1;marginBottom=0;whiteSpace=wrap;html=1;" parent="1" vertex="1">
          <mxGeometry x="290" y="260" width="270" height="130" as="geometry" />
        </mxCell>
        <mxCell id="nidFudNCeoTU9eq047Zy-27" value="+ Listar app disponíveis para limitação&amp;nbsp;" style="text;strokeColor=none;fillColor=none;align=left;verticalAlign=top;spacingLeft=4;spacingRight=4;overflow=hidden;rotatable=0;points=[[0,0.5],[1,0.5]];portConstraint=eastwest;whiteSpace=wrap;html=1;" parent="nidFudNCeoTU9eq047Zy-26" vertex="1">
          <mxGeometry y="26" width="270" height="26" as="geometry" />
        </mxCell>
        <mxCell id="nidFudNCeoTU9eq047Zy-28" value="+ Salvar escolha dos app para limitação" style="text;strokeColor=none;fillColor=none;align=left;verticalAlign=top;spacingLeft=4;spacingRight=4;overflow=hidden;rotatable=0;points=[[0,0.5],[1,0.5]];portConstraint=eastwest;whiteSpace=wrap;html=1;" parent="nidFudNCeoTU9eq047Zy-26" vertex="1">
          <mxGeometry y="52" width="270" height="26" as="geometry" />
        </mxCell>
        <mxCell id="nidFudNCeoTU9eq047Zy-29" value="+ Salvar o tempo de bloqueio" style="text;strokeColor=none;fillColor=none;align=left;verticalAlign=top;spacingLeft=4;spacingRight=4;overflow=hidden;rotatable=0;points=[[0,0.5],[1,0.5]];portConstraint=eastwest;whiteSpace=wrap;html=1;" parent="nidFudNCeoTU9eq047Zy-26" vertex="1">
          <mxGeometry y="78" width="270" height="26" as="geometry" />
        </mxCell>
        <mxCell id="nidFudNCeoTU9eq047Zy-30" value="+ Bloquear o app" style="text;strokeColor=none;fillColor=none;align=left;verticalAlign=top;spacingLeft=4;spacingRight=4;overflow=hidden;rotatable=0;points=[[0,0.5],[1,0.5]];portConstraint=eastwest;whiteSpace=wrap;html=1;" parent="nidFudNCeoTU9eq047Zy-26" vertex="1">
          <mxGeometry y="104" width="270" height="26" as="geometry" />
        </mxCell>
        <mxCell id="lkg-JrvjIJRry8kN40-e-47" style="rounded=0;orthogonalLoop=1;jettySize=auto;html=1;exitX=0.5;exitY=1;exitDx=0;exitDy=0;entryX=0.5;entryY=0;entryDx=0;entryDy=0;dashed=1;" edge="1" parent="1" source="nidFudNCeoTU9eq047Zy-35" target="nidFudNCeoTU9eq047Zy-46">
          <mxGeometry relative="1" as="geometry" />
        </mxCell>
        <mxCell id="lkg-JrvjIJRry8kN40-e-53" value="Use" style="edgeLabel;html=1;align=center;verticalAlign=middle;resizable=0;points=[];" vertex="1" connectable="0" parent="lkg-JrvjIJRry8kN40-e-47">
          <mxGeometry x="0.0247" y="-1" relative="1" as="geometry">
            <mxPoint as="offset" />
          </mxGeometry>
        </mxCell>
        <mxCell id="nidFudNCeoTU9eq047Zy-35" value="&amp;lt;&amp;lt;Componente Serviço&amp;gt;&amp;gt;&lt;div&gt;Bloquear Aplicativos&lt;/div&gt;" style="swimlane;fontStyle=0;childLayout=stackLayout;horizontal=1;startSize=26;fillColor=none;horizontalStack=0;resizeParent=1;resizeParentMax=0;resizeLast=0;collapsible=1;marginBottom=0;whiteSpace=wrap;html=1;" parent="1" vertex="1">
          <mxGeometry x="-40" y="770" width="180.38" height="52" as="geometry" />
        </mxCell>
        <mxCell id="nidFudNCeoTU9eq047Zy-38" value="+ ListarAppsDisp() : VECTOR []" style="text;strokeColor=none;fillColor=none;align=left;verticalAlign=top;spacingLeft=4;spacingRight=4;overflow=hidden;rotatable=0;points=[[0,0.5],[1,0.5]];portConstraint=eastwest;whiteSpace=wrap;html=1;" parent="nidFudNCeoTU9eq047Zy-35" vertex="1">
          <mxGeometry y="26" width="180.38" height="26" as="geometry" />
        </mxCell>
        <mxCell id="lkg-JrvjIJRry8kN40-e-45" style="rounded=0;orthogonalLoop=1;jettySize=auto;html=1;exitX=0.5;exitY=0;exitDx=0;exitDy=0;entryX=0.5;entryY=1;entryDx=0;entryDy=0;dashed=1;" edge="1" parent="1" source="nidFudNCeoTU9eq047Zy-39" target="nidFudNCeoTU9eq047Zy-1">
          <mxGeometry relative="1" as="geometry" />
        </mxCell>
        <mxCell id="lkg-JrvjIJRry8kN40-e-59" value="Use" style="edgeLabel;html=1;align=center;verticalAlign=middle;resizable=0;points=[];" vertex="1" connectable="0" parent="lkg-JrvjIJRry8kN40-e-45">
          <mxGeometry x="-0.0742" y="-3" relative="1" as="geometry">
            <mxPoint as="offset" />
          </mxGeometry>
        </mxCell>
        <mxCell id="nidFudNCeoTU9eq047Zy-39" value="&amp;lt;&amp;lt;Componente Serviço&amp;gt;&amp;gt;&lt;div&gt;Bloquear Aplicativos&lt;/div&gt;" style="swimlane;fontStyle=0;childLayout=stackLayout;horizontal=1;startSize=26;fillColor=none;horizontalStack=0;resizeParent=1;resizeParentMax=0;resizeLast=0;collapsible=1;marginBottom=0;whiteSpace=wrap;html=1;" parent="1" vertex="1">
          <mxGeometry x="490" y="770" width="180.38" height="52" as="geometry" />
        </mxCell>
        <mxCell id="nidFudNCeoTU9eq047Zy-40" value="+ AppsSel(): VECTOR []" style="text;strokeColor=none;fillColor=none;align=left;verticalAlign=top;spacingLeft=4;spacingRight=4;overflow=hidden;rotatable=0;points=[[0,0.5],[1,0.5]];portConstraint=eastwest;whiteSpace=wrap;html=1;" parent="nidFudNCeoTU9eq047Zy-39" vertex="1">
          <mxGeometry y="26" width="180.38" height="26" as="geometry" />
        </mxCell>
        <mxCell id="nidFudNCeoTU9eq047Zy-42" value="&amp;lt;&amp;lt;Componente Serviço&amp;gt;&amp;gt;&lt;div&gt;Bloquear Aplicativos&lt;/div&gt;" style="swimlane;fontStyle=0;childLayout=stackLayout;horizontal=1;startSize=26;fillColor=none;horizontalStack=0;resizeParent=1;resizeParentMax=0;resizeLast=0;collapsible=1;marginBottom=0;whiteSpace=wrap;html=1;" parent="1" vertex="1">
          <mxGeometry x="740" y="770" width="180.38" height="52" as="geometry" />
        </mxCell>
        <mxCell id="nidFudNCeoTU9eq047Zy-43" value="+ TempoBlock(): int" style="text;strokeColor=none;fillColor=none;align=left;verticalAlign=top;spacingLeft=4;spacingRight=4;overflow=hidden;rotatable=0;points=[[0,0.5],[1,0.5]];portConstraint=eastwest;whiteSpace=wrap;html=1;" parent="nidFudNCeoTU9eq047Zy-42" vertex="1">
          <mxGeometry y="26" width="180.38" height="26" as="geometry" />
        </mxCell>
        <mxCell id="lkg-JrvjIJRry8kN40-e-44" style="rounded=0;orthogonalLoop=1;jettySize=auto;html=1;exitX=0.5;exitY=0;exitDx=0;exitDy=0;entryX=0.5;entryY=1;entryDx=0;entryDy=0;dashed=1;" edge="1" parent="1" source="nidFudNCeoTU9eq047Zy-44" target="nidFudNCeoTU9eq047Zy-1">
          <mxGeometry relative="1" as="geometry" />
        </mxCell>
        <mxCell id="lkg-JrvjIJRry8kN40-e-58" value="Use" style="edgeLabel;html=1;align=center;verticalAlign=middle;resizable=0;points=[];" vertex="1" connectable="0" parent="lkg-JrvjIJRry8kN40-e-44">
          <mxGeometry x="-0.0224" y="-2" relative="1" as="geometry">
            <mxPoint as="offset" />
          </mxGeometry>
        </mxCell>
        <mxCell id="lkg-JrvjIJRry8kN40-e-48" style="rounded=0;orthogonalLoop=1;jettySize=auto;html=1;exitX=0.5;exitY=1;exitDx=0;exitDy=0;dashed=1;" edge="1" parent="1" source="nidFudNCeoTU9eq047Zy-44">
          <mxGeometry relative="1" as="geometry">
            <mxPoint x="440" y="980" as="targetPoint" />
          </mxGeometry>
        </mxCell>
        <mxCell id="lkg-JrvjIJRry8kN40-e-54" value="Use" style="edgeLabel;html=1;align=center;verticalAlign=middle;resizable=0;points=[];" vertex="1" connectable="0" parent="lkg-JrvjIJRry8kN40-e-48">
          <mxGeometry x="-0.2175" y="1" relative="1" as="geometry">
            <mxPoint as="offset" />
          </mxGeometry>
        </mxCell>
        <mxCell id="nidFudNCeoTU9eq047Zy-44" value="&amp;lt;&amp;lt;Componente Serviço&amp;gt;&amp;gt;&lt;div&gt;Bloquear Aplicativos&lt;/div&gt;" style="swimlane;fontStyle=0;childLayout=stackLayout;horizontal=1;startSize=26;fillColor=none;horizontalStack=0;resizeParent=1;resizeParentMax=0;resizeLast=0;collapsible=1;marginBottom=0;whiteSpace=wrap;html=1;" parent="1" vertex="1">
          <mxGeometry x="233" y="770" width="180.38" height="52" as="geometry" />
        </mxCell>
        <mxCell id="nidFudNCeoTU9eq047Zy-45" value="+ StatusBlock(): bool" style="text;strokeColor=none;fillColor=none;align=left;verticalAlign=top;spacingLeft=4;spacingRight=4;overflow=hidden;rotatable=0;points=[[0,0.5],[1,0.5]];portConstraint=eastwest;whiteSpace=wrap;html=1;" parent="nidFudNCeoTU9eq047Zy-44" vertex="1">
          <mxGeometry y="26" width="180.38" height="26" as="geometry" />
        </mxCell>
        <mxCell id="nidFudNCeoTU9eq047Zy-46" value="&amp;lt;&amp;lt;Classe&amp;gt;&amp;gt;&lt;div&gt;Configurações&lt;/div&gt;" style="swimlane;fontStyle=0;childLayout=stackLayout;horizontal=1;startSize=26;fillColor=none;horizontalStack=0;resizeParent=1;resizeParentMax=0;resizeLast=0;collapsible=1;marginBottom=0;whiteSpace=wrap;html=1;" parent="1" vertex="1">
          <mxGeometry x="290" y="983" width="270" height="78" as="geometry" />
        </mxCell>
        <mxCell id="nidFudNCeoTU9eq047Zy-47" value="+ListaAppsBlock(): LIST[]" style="text;strokeColor=none;fillColor=none;align=left;verticalAlign=top;spacingLeft=4;spacingRight=4;overflow=hidden;rotatable=0;points=[[0,0.5],[1,0.5]];portConstraint=eastwest;whiteSpace=wrap;html=1;" parent="nidFudNCeoTU9eq047Zy-46" vertex="1">
          <mxGeometry y="26" width="270" height="26" as="geometry" />
        </mxCell>
        <mxCell id="nidFudNCeoTU9eq047Zy-48" value="+ TempoBlock(): int" style="text;strokeColor=none;fillColor=none;align=left;verticalAlign=top;spacingLeft=4;spacingRight=4;overflow=hidden;rotatable=0;points=[[0,0.5],[1,0.5]];portConstraint=eastwest;whiteSpace=wrap;html=1;" parent="nidFudNCeoTU9eq047Zy-46" vertex="1">
          <mxGeometry y="52" width="270" height="26" as="geometry" />
        </mxCell>
        <mxCell id="lkg-JrvjIJRry8kN40-e-26" style="rounded=0;orthogonalLoop=1;jettySize=auto;html=1;exitX=0.5;exitY=0;exitDx=0;exitDy=0;entryX=0.5;entryY=1;entryDx=0;entryDy=0;elbow=vertical;dashed=1;" edge="1" parent="1" source="nidFudNCeoTU9eq047Zy-51" target="nidFudNCeoTU9eq047Zy-5">
          <mxGeometry relative="1" as="geometry" />
        </mxCell>
        <mxCell id="lkg-JrvjIJRry8kN40-e-27" value="Use" style="edgeLabel;html=1;align=center;verticalAlign=middle;resizable=0;points=[];" vertex="1" connectable="0" parent="lkg-JrvjIJRry8kN40-e-26">
          <mxGeometry x="0.2272" y="-1" relative="1" as="geometry">
            <mxPoint as="offset" />
          </mxGeometry>
        </mxCell>
        <mxCell id="lkg-JrvjIJRry8kN40-e-35" style="rounded=0;orthogonalLoop=1;jettySize=auto;html=1;exitX=0.5;exitY=1;exitDx=0;exitDy=0;dashed=1;" edge="1" parent="1" source="nidFudNCeoTU9eq047Zy-51" target="nidFudNCeoTU9eq047Zy-59">
          <mxGeometry relative="1" as="geometry" />
        </mxCell>
        <mxCell id="lkg-JrvjIJRry8kN40-e-39" value="Use" style="edgeLabel;html=1;align=center;verticalAlign=middle;resizable=0;points=[];" vertex="1" connectable="0" parent="lkg-JrvjIJRry8kN40-e-35">
          <mxGeometry x="-0.213" y="-1" relative="1" as="geometry">
            <mxPoint as="offset" />
          </mxGeometry>
        </mxCell>
        <mxCell id="nidFudNCeoTU9eq047Zy-51" value="&amp;lt;&amp;lt;Componente Serviço&amp;gt;&amp;gt;&lt;div&gt;Bloquear Aplicativos&lt;/div&gt;" style="swimlane;fontStyle=0;childLayout=stackLayout;horizontal=1;startSize=26;fillColor=none;horizontalStack=0;resizeParent=1;resizeParentMax=0;resizeLast=0;collapsible=1;marginBottom=0;whiteSpace=wrap;html=1;" parent="1" vertex="1">
          <mxGeometry x="1170" y="740" width="180.38" height="52" as="geometry" />
        </mxCell>
        <mxCell id="nidFudNCeoTU9eq047Zy-52" value="+ ListarAppsDisp() : VECTOR []" style="text;strokeColor=none;fillColor=none;align=left;verticalAlign=top;spacingLeft=4;spacingRight=4;overflow=hidden;rotatable=0;points=[[0,0.5],[1,0.5]];portConstraint=eastwest;whiteSpace=wrap;html=1;" parent="nidFudNCeoTU9eq047Zy-51" vertex="1">
          <mxGeometry y="26" width="180.38" height="26" as="geometry" />
        </mxCell>
        <mxCell id="lkg-JrvjIJRry8kN40-e-28" style="rounded=0;orthogonalLoop=1;jettySize=auto;html=1;exitX=0.5;exitY=0;exitDx=0;exitDy=0;dashed=1;" edge="1" parent="1" source="nidFudNCeoTU9eq047Zy-53">
          <mxGeometry relative="1" as="geometry">
            <mxPoint x="1660" y="590" as="targetPoint" />
          </mxGeometry>
        </mxCell>
        <mxCell id="lkg-JrvjIJRry8kN40-e-29" value="Use" style="edgeLabel;html=1;align=center;verticalAlign=middle;resizable=0;points=[];" vertex="1" connectable="0" parent="lkg-JrvjIJRry8kN40-e-28">
          <mxGeometry x="0.1797" y="2" relative="1" as="geometry">
            <mxPoint as="offset" />
          </mxGeometry>
        </mxCell>
        <mxCell id="lkg-JrvjIJRry8kN40-e-36" style="rounded=0;orthogonalLoop=1;jettySize=auto;html=1;exitX=0.5;exitY=1;exitDx=0;exitDy=0;dashed=1;" edge="1" parent="1" source="nidFudNCeoTU9eq047Zy-53" target="nidFudNCeoTU9eq047Zy-59">
          <mxGeometry relative="1" as="geometry" />
        </mxCell>
        <mxCell id="lkg-JrvjIJRry8kN40-e-40" value="Use" style="edgeLabel;html=1;align=center;verticalAlign=middle;resizable=0;points=[];" vertex="1" connectable="0" parent="lkg-JrvjIJRry8kN40-e-36">
          <mxGeometry x="-0.0815" y="-1" relative="1" as="geometry">
            <mxPoint as="offset" />
          </mxGeometry>
        </mxCell>
        <mxCell id="nidFudNCeoTU9eq047Zy-53" value="&amp;lt;&amp;lt;Componente Serviço&amp;gt;&amp;gt;&lt;div&gt;Bloquear Aplicativos&lt;/div&gt;" style="swimlane;fontStyle=0;childLayout=stackLayout;horizontal=1;startSize=26;fillColor=none;horizontalStack=0;resizeParent=1;resizeParentMax=0;resizeLast=0;collapsible=1;marginBottom=0;whiteSpace=wrap;html=1;" parent="1" vertex="1">
          <mxGeometry x="1440" y="740" width="180.38" height="52" as="geometry" />
        </mxCell>
        <mxCell id="nidFudNCeoTU9eq047Zy-54" value="+ AppsSel(): VECTOR []" style="text;strokeColor=none;fillColor=none;align=left;verticalAlign=top;spacingLeft=4;spacingRight=4;overflow=hidden;rotatable=0;points=[[0,0.5],[1,0.5]];portConstraint=eastwest;whiteSpace=wrap;html=1;" parent="nidFudNCeoTU9eq047Zy-53" vertex="1">
          <mxGeometry y="26" width="180.38" height="26" as="geometry" />
        </mxCell>
        <mxCell id="lkg-JrvjIJRry8kN40-e-30" style="rounded=0;orthogonalLoop=1;jettySize=auto;html=1;exitX=0.5;exitY=0;exitDx=0;exitDy=0;dashed=1;" edge="1" parent="1" source="nidFudNCeoTU9eq047Zy-55">
          <mxGeometry relative="1" as="geometry">
            <mxPoint x="1660" y="590" as="targetPoint" />
          </mxGeometry>
        </mxCell>
        <mxCell id="lkg-JrvjIJRry8kN40-e-31" value="Use" style="edgeLabel;html=1;align=center;verticalAlign=middle;resizable=0;points=[];" vertex="1" connectable="0" parent="lkg-JrvjIJRry8kN40-e-30">
          <mxGeometry x="0.338" y="-3" relative="1" as="geometry">
            <mxPoint as="offset" />
          </mxGeometry>
        </mxCell>
        <mxCell id="nidFudNCeoTU9eq047Zy-55" value="&amp;lt;&amp;lt;Componente Serviço&amp;gt;&amp;gt;&lt;div&gt;Bloquear Aplicativos&lt;/div&gt;" style="swimlane;fontStyle=0;childLayout=stackLayout;horizontal=1;startSize=26;fillColor=none;horizontalStack=0;resizeParent=1;resizeParentMax=0;resizeLast=0;collapsible=1;marginBottom=0;whiteSpace=wrap;html=1;" parent="1" vertex="1">
          <mxGeometry x="1700" y="740" width="180.38" height="52" as="geometry" />
        </mxCell>
        <mxCell id="nidFudNCeoTU9eq047Zy-56" value="+ TempoLim(): int" style="text;strokeColor=none;fillColor=none;align=left;verticalAlign=top;spacingLeft=4;spacingRight=4;overflow=hidden;rotatable=0;points=[[0,0.5],[1,0.5]];portConstraint=eastwest;whiteSpace=wrap;html=1;" parent="nidFudNCeoTU9eq047Zy-55" vertex="1">
          <mxGeometry y="26" width="180.38" height="26" as="geometry" />
        </mxCell>
        <mxCell id="lkg-JrvjIJRry8kN40-e-32" style="rounded=0;orthogonalLoop=1;jettySize=auto;html=1;exitX=0.5;exitY=0;exitDx=0;exitDy=0;dashed=1;" edge="1" parent="1" source="nidFudNCeoTU9eq047Zy-57">
          <mxGeometry relative="1" as="geometry">
            <mxPoint x="1660" y="590" as="targetPoint" />
          </mxGeometry>
        </mxCell>
        <mxCell id="lkg-JrvjIJRry8kN40-e-33" value="Use" style="edgeLabel;html=1;align=center;verticalAlign=middle;resizable=0;points=[];" vertex="1" connectable="0" parent="lkg-JrvjIJRry8kN40-e-32">
          <mxGeometry x="-0.1268" y="2" relative="1" as="geometry">
            <mxPoint as="offset" />
          </mxGeometry>
        </mxCell>
        <mxCell id="nidFudNCeoTU9eq047Zy-57" value="&amp;lt;&amp;lt;Componente Serviço&amp;gt;&amp;gt;&lt;div&gt;Bloquear Aplicativos&lt;/div&gt;" style="swimlane;fontStyle=0;childLayout=stackLayout;horizontal=1;startSize=26;fillColor=none;horizontalStack=0;resizeParent=1;resizeParentMax=0;resizeLast=0;collapsible=1;marginBottom=0;whiteSpace=wrap;html=1;" parent="1" vertex="1">
          <mxGeometry x="1910" y="740" width="180.38" height="52" as="geometry" />
        </mxCell>
        <mxCell id="nidFudNCeoTU9eq047Zy-58" value="+ StatusLim(): bool" style="text;strokeColor=none;fillColor=none;align=left;verticalAlign=top;spacingLeft=4;spacingRight=4;overflow=hidden;rotatable=0;points=[[0,0.5],[1,0.5]];portConstraint=eastwest;whiteSpace=wrap;html=1;" parent="nidFudNCeoTU9eq047Zy-57" vertex="1">
          <mxGeometry y="26" width="180.38" height="26" as="geometry" />
        </mxCell>
        <mxCell id="nidFudNCeoTU9eq047Zy-59" value="&amp;lt;&amp;lt;Classe&amp;gt;&amp;gt;&lt;div&gt;Configurações&lt;/div&gt;" style="swimlane;fontStyle=0;childLayout=stackLayout;horizontal=1;startSize=26;fillColor=none;horizontalStack=0;resizeParent=1;resizeParentMax=0;resizeLast=0;collapsible=1;marginBottom=0;whiteSpace=wrap;html=1;" parent="1" vertex="1">
          <mxGeometry x="1520" y="930" width="270" height="78" as="geometry" />
        </mxCell>
        <mxCell id="nidFudNCeoTU9eq047Zy-60" value="+ListaAppsLimk(): LIST[]" style="text;strokeColor=none;fillColor=none;align=left;verticalAlign=top;spacingLeft=4;spacingRight=4;overflow=hidden;rotatable=0;points=[[0,0.5],[1,0.5]];portConstraint=eastwest;whiteSpace=wrap;html=1;" parent="nidFudNCeoTU9eq047Zy-59" vertex="1">
          <mxGeometry y="26" width="270" height="26" as="geometry" />
        </mxCell>
        <mxCell id="nidFudNCeoTU9eq047Zy-61" value="+ TempoLim(): int" style="text;strokeColor=none;fillColor=none;align=left;verticalAlign=top;spacingLeft=4;spacingRight=4;overflow=hidden;rotatable=0;points=[[0,0.5],[1,0.5]];portConstraint=eastwest;whiteSpace=wrap;html=1;" parent="nidFudNCeoTU9eq047Zy-59" vertex="1">
          <mxGeometry y="52" width="270" height="26" as="geometry" />
        </mxCell>
        <mxCell id="lkg-JrvjIJRry8kN40-e-61" style="rounded=0;orthogonalLoop=1;jettySize=auto;html=1;exitX=0.5;exitY=0;exitDx=0;exitDy=0;entryX=0.5;entryY=1;entryDx=0;entryDy=0;dashed=1;" edge="1" parent="1" source="nidFudNCeoTU9eq047Zy-62" target="nidFudNCeoTU9eq047Zy-17">
          <mxGeometry relative="1" as="geometry" />
        </mxCell>
        <mxCell id="lkg-JrvjIJRry8kN40-e-70" value="Use" style="edgeLabel;html=1;align=center;verticalAlign=middle;resizable=0;points=[];" vertex="1" connectable="0" parent="lkg-JrvjIJRry8kN40-e-61">
          <mxGeometry x="-0.0869" y="1" relative="1" as="geometry">
            <mxPoint as="offset" />
          </mxGeometry>
        </mxCell>
        <mxCell id="lkg-JrvjIJRry8kN40-e-64" style="rounded=0;orthogonalLoop=1;jettySize=auto;html=1;exitX=0.5;exitY=1;exitDx=0;exitDy=0;entryX=0.5;entryY=0;entryDx=0;entryDy=0;dashed=1;" edge="1" parent="1" source="nidFudNCeoTU9eq047Zy-62" target="nidFudNCeoTU9eq047Zy-68">
          <mxGeometry relative="1" as="geometry" />
        </mxCell>
        <mxCell id="lkg-JrvjIJRry8kN40-e-67" value="Use" style="edgeLabel;html=1;align=center;verticalAlign=middle;resizable=0;points=[];" vertex="1" connectable="0" parent="lkg-JrvjIJRry8kN40-e-64">
          <mxGeometry x="-0.2927" y="2" relative="1" as="geometry">
            <mxPoint y="-1" as="offset" />
          </mxGeometry>
        </mxCell>
        <mxCell id="nidFudNCeoTU9eq047Zy-62" value="&amp;lt;&amp;lt;Componente Serviço&amp;gt;&amp;gt;&lt;div&gt;Limitar Aplicativos&lt;/div&gt;" style="swimlane;fontStyle=0;childLayout=stackLayout;horizontal=1;startSize=26;fillColor=none;horizontalStack=0;resizeParent=1;resizeParentMax=0;resizeLast=0;collapsible=1;marginBottom=0;whiteSpace=wrap;html=1;" parent="1" vertex="1">
          <mxGeometry x="2284.81" y="698" width="180.38" height="52" as="geometry" />
        </mxCell>
        <mxCell id="nidFudNCeoTU9eq047Zy-63" value="+ AppAberto(): String" style="text;strokeColor=none;fillColor=none;align=left;verticalAlign=top;spacingLeft=4;spacingRight=4;overflow=hidden;rotatable=0;points=[[0,0.5],[1,0.5]];portConstraint=eastwest;whiteSpace=wrap;html=1;" parent="nidFudNCeoTU9eq047Zy-62" vertex="1">
          <mxGeometry y="26" width="180.38" height="26" as="geometry" />
        </mxCell>
        <mxCell id="lkg-JrvjIJRry8kN40-e-62" style="rounded=0;orthogonalLoop=1;jettySize=auto;html=1;exitX=0.5;exitY=0;exitDx=0;exitDy=0;dashed=1;" edge="1" parent="1" source="nidFudNCeoTU9eq047Zy-64">
          <mxGeometry relative="1" as="geometry">
            <mxPoint x="2610" y="560" as="targetPoint" />
          </mxGeometry>
        </mxCell>
        <mxCell id="lkg-JrvjIJRry8kN40-e-71" value="Use" style="edgeLabel;html=1;align=center;verticalAlign=middle;resizable=0;points=[];" vertex="1" connectable="0" parent="lkg-JrvjIJRry8kN40-e-62">
          <mxGeometry x="-0.1989" y="-4" relative="1" as="geometry">
            <mxPoint as="offset" />
          </mxGeometry>
        </mxCell>
        <mxCell id="lkg-JrvjIJRry8kN40-e-65" style="rounded=0;orthogonalLoop=1;jettySize=auto;html=1;exitX=0.5;exitY=1;exitDx=0;exitDy=0;dashed=1;" edge="1" parent="1" source="nidFudNCeoTU9eq047Zy-64" target="nidFudNCeoTU9eq047Zy-68">
          <mxGeometry relative="1" as="geometry" />
        </mxCell>
        <mxCell id="lkg-JrvjIJRry8kN40-e-68" value="Use" style="edgeLabel;html=1;align=center;verticalAlign=middle;resizable=0;points=[];" vertex="1" connectable="0" parent="lkg-JrvjIJRry8kN40-e-65">
          <mxGeometry x="-0.0667" y="-1" relative="1" as="geometry">
            <mxPoint as="offset" />
          </mxGeometry>
        </mxCell>
        <mxCell id="nidFudNCeoTU9eq047Zy-64" value="&amp;lt;&amp;lt;Componente Serviço&amp;gt;&amp;gt;&lt;div&gt;&lt;div&gt;Limitar Aplicativos&lt;/div&gt;&lt;/div&gt;" style="swimlane;fontStyle=0;childLayout=stackLayout;horizontal=1;startSize=26;fillColor=none;horizontalStack=0;resizeParent=1;resizeParentMax=0;resizeLast=0;collapsible=1;marginBottom=0;whiteSpace=wrap;html=1;" parent="1" vertex="1">
          <mxGeometry x="2520" y="698" width="180.38" height="52" as="geometry" />
        </mxCell>
        <mxCell id="nidFudNCeoTU9eq047Zy-65" value="+ AppSel(): String" style="text;strokeColor=none;fillColor=none;align=left;verticalAlign=top;spacingLeft=4;spacingRight=4;overflow=hidden;rotatable=0;points=[[0,0.5],[1,0.5]];portConstraint=eastwest;whiteSpace=wrap;html=1;" parent="nidFudNCeoTU9eq047Zy-64" vertex="1">
          <mxGeometry y="26" width="180.38" height="26" as="geometry" />
        </mxCell>
        <mxCell id="lkg-JrvjIJRry8kN40-e-63" style="rounded=0;orthogonalLoop=1;jettySize=auto;html=1;exitX=0.5;exitY=0;exitDx=0;exitDy=0;dashed=1;" edge="1" parent="1" source="nidFudNCeoTU9eq047Zy-66">
          <mxGeometry relative="1" as="geometry">
            <mxPoint x="2630" y="560" as="targetPoint" />
          </mxGeometry>
        </mxCell>
        <mxCell id="lkg-JrvjIJRry8kN40-e-72" value="Use" style="edgeLabel;html=1;align=center;verticalAlign=middle;resizable=0;points=[];" vertex="1" connectable="0" parent="lkg-JrvjIJRry8kN40-e-63">
          <mxGeometry x="-0.3481" y="1" relative="1" as="geometry">
            <mxPoint as="offset" />
          </mxGeometry>
        </mxCell>
        <mxCell id="lkg-JrvjIJRry8kN40-e-66" style="rounded=0;orthogonalLoop=1;jettySize=auto;html=1;exitX=0.5;exitY=1;exitDx=0;exitDy=0;dashed=1;" edge="1" parent="1" source="nidFudNCeoTU9eq047Zy-66" target="nidFudNCeoTU9eq047Zy-68">
          <mxGeometry relative="1" as="geometry" />
        </mxCell>
        <mxCell id="lkg-JrvjIJRry8kN40-e-69" value="Use" style="edgeLabel;html=1;align=center;verticalAlign=middle;resizable=0;points=[];" vertex="1" connectable="0" parent="lkg-JrvjIJRry8kN40-e-66">
          <mxGeometry x="-0.1471" y="1" relative="1" as="geometry">
            <mxPoint as="offset" />
          </mxGeometry>
        </mxCell>
        <mxCell id="nidFudNCeoTU9eq047Zy-66" value="&amp;lt;&amp;lt;Componente Serviço&amp;gt;&amp;gt;&lt;div&gt;&lt;div&gt;Limitar Aplicativos&lt;/div&gt;&lt;/div&gt;" style="swimlane;fontStyle=0;childLayout=stackLayout;horizontal=1;startSize=26;fillColor=none;horizontalStack=0;resizeParent=1;resizeParentMax=0;resizeLast=0;collapsible=1;marginBottom=0;whiteSpace=wrap;html=1;" parent="1" vertex="1">
          <mxGeometry x="2735.19" y="698" width="180.38" height="52" as="geometry" />
        </mxCell>
        <mxCell id="nidFudNCeoTU9eq047Zy-67" value="+ TempoUso(): int" style="text;strokeColor=none;fillColor=none;align=left;verticalAlign=top;spacingLeft=4;spacingRight=4;overflow=hidden;rotatable=0;points=[[0,0.5],[1,0.5]];portConstraint=eastwest;whiteSpace=wrap;html=1;" parent="nidFudNCeoTU9eq047Zy-66" vertex="1">
          <mxGeometry y="26" width="180.38" height="26" as="geometry" />
        </mxCell>
        <mxCell id="nidFudNCeoTU9eq047Zy-68" value="&amp;lt;&amp;lt;Classe&amp;gt;&amp;gt;&lt;div&gt;Gráficos de Dados de Uso&lt;/div&gt;" style="swimlane;fontStyle=0;childLayout=stackLayout;horizontal=1;startSize=26;fillColor=none;horizontalStack=0;resizeParent=1;resizeParentMax=0;resizeLast=0;collapsible=1;marginBottom=0;whiteSpace=wrap;html=1;" parent="1" vertex="1">
          <mxGeometry x="2465.19" y="900" width="270" height="104" as="geometry" />
        </mxCell>
        <mxCell id="nidFudNCeoTU9eq047Zy-69" value="+ListaAppsScan(): LIST[]" style="text;strokeColor=none;fillColor=none;align=left;verticalAlign=top;spacingLeft=4;spacingRight=4;overflow=hidden;rotatable=0;points=[[0,0.5],[1,0.5]];portConstraint=eastwest;whiteSpace=wrap;html=1;" parent="nidFudNCeoTU9eq047Zy-68" vertex="1">
          <mxGeometry y="26" width="270" height="26" as="geometry" />
        </mxCell>
        <mxCell id="nidFudNCeoTU9eq047Zy-70" value="+ TempoUsoTotal(): int" style="text;strokeColor=none;fillColor=none;align=left;verticalAlign=top;spacingLeft=4;spacingRight=4;overflow=hidden;rotatable=0;points=[[0,0.5],[1,0.5]];portConstraint=eastwest;whiteSpace=wrap;html=1;" parent="nidFudNCeoTU9eq047Zy-68" vertex="1">
          <mxGeometry y="52" width="270" height="26" as="geometry" />
        </mxCell>
        <mxCell id="nidFudNCeoTU9eq047Zy-71" value="+ TempoUsoBlockLim(): int" style="text;strokeColor=none;fillColor=none;align=left;verticalAlign=top;spacingLeft=4;spacingRight=4;overflow=hidden;rotatable=0;points=[[0,0.5],[1,0.5]];portConstraint=eastwest;whiteSpace=wrap;html=1;" parent="nidFudNCeoTU9eq047Zy-68" vertex="1">
          <mxGeometry y="78" width="270" height="26" as="geometry" />
        </mxCell>
        <mxCell id="lkg-JrvjIJRry8kN40-e-77" style="rounded=0;orthogonalLoop=1;jettySize=auto;html=1;exitX=0.5;exitY=1;exitDx=0;exitDy=0;entryX=0.5;entryY=0;entryDx=0;entryDy=0;dashed=1;" edge="1" parent="1" source="lkg-JrvjIJRry8kN40-e-1" target="lkg-JrvjIJRry8kN40-e-7">
          <mxGeometry relative="1" as="geometry" />
        </mxCell>
        <mxCell id="lkg-JrvjIJRry8kN40-e-83" value="Use" style="edgeLabel;html=1;align=center;verticalAlign=middle;resizable=0;points=[];" vertex="1" connectable="0" parent="lkg-JrvjIJRry8kN40-e-77">
          <mxGeometry x="-0.1327" y="-2" relative="1" as="geometry">
            <mxPoint as="offset" />
          </mxGeometry>
        </mxCell>
        <mxCell id="lkg-JrvjIJRry8kN40-e-1" value="&amp;lt;&amp;lt;Componente Serviço&amp;gt;&amp;gt;&lt;div&gt;Ativar Modo de Controle Parental&lt;/div&gt;" style="swimlane;fontStyle=0;childLayout=stackLayout;horizontal=1;startSize=26;fillColor=none;horizontalStack=0;resizeParent=1;resizeParentMax=0;resizeLast=0;collapsible=1;marginBottom=0;whiteSpace=wrap;html=1;" vertex="1" parent="1">
          <mxGeometry x="3039.62" y="740" width="180.38" height="52" as="geometry" />
        </mxCell>
        <mxCell id="lkg-JrvjIJRry8kN40-e-2" value="+ Senha(): String" style="text;strokeColor=none;fillColor=none;align=left;verticalAlign=top;spacingLeft=4;spacingRight=4;overflow=hidden;rotatable=0;points=[[0,0.5],[1,0.5]];portConstraint=eastwest;whiteSpace=wrap;html=1;" vertex="1" parent="lkg-JrvjIJRry8kN40-e-1">
          <mxGeometry y="26" width="180.38" height="26" as="geometry" />
        </mxCell>
        <mxCell id="lkg-JrvjIJRry8kN40-e-74" style="rounded=0;orthogonalLoop=1;jettySize=auto;html=1;exitX=0.5;exitY=0;exitDx=0;exitDy=0;dashed=1;" edge="1" parent="1" source="lkg-JrvjIJRry8kN40-e-3">
          <mxGeometry relative="1" as="geometry">
            <mxPoint x="3398" y="560" as="targetPoint" />
          </mxGeometry>
        </mxCell>
        <mxCell id="lkg-JrvjIJRry8kN40-e-81" value="Use" style="edgeLabel;html=1;align=center;verticalAlign=middle;resizable=0;points=[];" vertex="1" connectable="0" parent="lkg-JrvjIJRry8kN40-e-74">
          <mxGeometry x="-0.0556" y="-1" relative="1" as="geometry">
            <mxPoint as="offset" />
          </mxGeometry>
        </mxCell>
        <mxCell id="lkg-JrvjIJRry8kN40-e-78" style="rounded=0;orthogonalLoop=1;jettySize=auto;html=1;exitX=0.5;exitY=1;exitDx=0;exitDy=0;entryX=0.5;entryY=0;entryDx=0;entryDy=0;dashed=1;" edge="1" parent="1" source="lkg-JrvjIJRry8kN40-e-3" target="lkg-JrvjIJRry8kN40-e-7">
          <mxGeometry relative="1" as="geometry" />
        </mxCell>
        <mxCell id="lkg-JrvjIJRry8kN40-e-84" value="Use" style="edgeLabel;html=1;align=center;verticalAlign=middle;resizable=0;points=[];" vertex="1" connectable="0" parent="lkg-JrvjIJRry8kN40-e-78">
          <mxGeometry x="-0.2697" y="2" relative="1" as="geometry">
            <mxPoint as="offset" />
          </mxGeometry>
        </mxCell>
        <mxCell id="lkg-JrvjIJRry8kN40-e-3" value="&amp;lt;&amp;lt;Componente Serviço&amp;gt;&amp;gt;&lt;div&gt;Ativar Modo de Controle Parental&lt;/div&gt;" style="swimlane;fontStyle=0;childLayout=stackLayout;horizontal=1;startSize=26;fillColor=none;horizontalStack=0;resizeParent=1;resizeParentMax=0;resizeLast=0;collapsible=1;marginBottom=0;whiteSpace=wrap;html=1;" vertex="1" parent="1">
          <mxGeometry x="3308" y="740" width="180.38" height="52" as="geometry" />
        </mxCell>
        <mxCell id="lkg-JrvjIJRry8kN40-e-4" value="+ AppSel(): String" style="text;strokeColor=none;fillColor=none;align=left;verticalAlign=top;spacingLeft=4;spacingRight=4;overflow=hidden;rotatable=0;points=[[0,0.5],[1,0.5]];portConstraint=eastwest;whiteSpace=wrap;html=1;" vertex="1" parent="lkg-JrvjIJRry8kN40-e-3">
          <mxGeometry y="26" width="180.38" height="26" as="geometry" />
        </mxCell>
        <mxCell id="lkg-JrvjIJRry8kN40-e-75" style="rounded=0;orthogonalLoop=1;jettySize=auto;html=1;exitX=0.5;exitY=0;exitDx=0;exitDy=0;entryX=0.5;entryY=1;entryDx=0;entryDy=0;dashed=1;" edge="1" parent="1" source="lkg-JrvjIJRry8kN40-e-5" target="nidFudNCeoTU9eq047Zy-21">
          <mxGeometry relative="1" as="geometry" />
        </mxCell>
        <mxCell id="lkg-JrvjIJRry8kN40-e-82" value="Use" style="edgeLabel;html=1;align=center;verticalAlign=middle;resizable=0;points=[];" vertex="1" connectable="0" parent="lkg-JrvjIJRry8kN40-e-75">
          <mxGeometry x="-0.1008" y="1" relative="1" as="geometry">
            <mxPoint as="offset" />
          </mxGeometry>
        </mxCell>
        <mxCell id="lkg-JrvjIJRry8kN40-e-79" style="rounded=0;orthogonalLoop=1;jettySize=auto;html=1;exitX=0.5;exitY=1;exitDx=0;exitDy=0;entryX=0.5;entryY=0;entryDx=0;entryDy=0;dashed=1;" edge="1" parent="1" source="lkg-JrvjIJRry8kN40-e-5" target="lkg-JrvjIJRry8kN40-e-7">
          <mxGeometry relative="1" as="geometry" />
        </mxCell>
        <mxCell id="lkg-JrvjIJRry8kN40-e-85" value="Use" style="edgeLabel;html=1;align=center;verticalAlign=middle;resizable=0;points=[];" vertex="1" connectable="0" parent="lkg-JrvjIJRry8kN40-e-79">
          <mxGeometry x="-0.3284" y="-1" relative="1" as="geometry">
            <mxPoint as="offset" />
          </mxGeometry>
        </mxCell>
        <mxCell id="lkg-JrvjIJRry8kN40-e-5" value="&amp;lt;&amp;lt;Componente Serviço&amp;gt;&amp;gt;&lt;div&gt;Ativar Modo de Controle Parental&lt;/div&gt;" style="swimlane;fontStyle=0;childLayout=stackLayout;horizontal=1;startSize=26;fillColor=none;horizontalStack=0;resizeParent=1;resizeParentMax=0;resizeLast=0;collapsible=1;marginBottom=0;whiteSpace=wrap;html=1;" vertex="1" parent="1">
          <mxGeometry x="3590" y="740" width="180.38" height="52" as="geometry" />
        </mxCell>
        <mxCell id="lkg-JrvjIJRry8kN40-e-6" value="+ StatusBlock(): bool" style="text;strokeColor=none;fillColor=none;align=left;verticalAlign=top;spacingLeft=4;spacingRight=4;overflow=hidden;rotatable=0;points=[[0,0.5],[1,0.5]];portConstraint=eastwest;whiteSpace=wrap;html=1;" vertex="1" parent="lkg-JrvjIJRry8kN40-e-5">
          <mxGeometry y="26" width="180.38" height="26" as="geometry" />
        </mxCell>
        <mxCell id="lkg-JrvjIJRry8kN40-e-7" value="&amp;lt;&amp;lt;Classe&amp;gt;&amp;gt;&lt;div&gt;Usuário Local Admin&lt;/div&gt;" style="swimlane;fontStyle=0;childLayout=stackLayout;horizontal=1;startSize=26;fillColor=none;horizontalStack=0;resizeParent=1;resizeParentMax=0;resizeLast=0;collapsible=1;marginBottom=0;whiteSpace=wrap;html=1;" vertex="1" parent="1">
          <mxGeometry x="3263.19" y="970" width="270" height="104" as="geometry" />
        </mxCell>
        <mxCell id="lkg-JrvjIJRry8kN40-e-8" value="+ Senha(): String" style="text;strokeColor=none;fillColor=none;align=left;verticalAlign=top;spacingLeft=4;spacingRight=4;overflow=hidden;rotatable=0;points=[[0,0.5],[1,0.5]];portConstraint=eastwest;whiteSpace=wrap;html=1;" vertex="1" parent="lkg-JrvjIJRry8kN40-e-7">
          <mxGeometry y="26" width="270" height="26" as="geometry" />
        </mxCell>
        <mxCell id="lkg-JrvjIJRry8kN40-e-9" value="+ AppBlock(): LIST[]" style="text;strokeColor=none;fillColor=none;align=left;verticalAlign=top;spacingLeft=4;spacingRight=4;overflow=hidden;rotatable=0;points=[[0,0.5],[1,0.5]];portConstraint=eastwest;whiteSpace=wrap;html=1;" vertex="1" parent="lkg-JrvjIJRry8kN40-e-7">
          <mxGeometry y="52" width="270" height="26" as="geometry" />
        </mxCell>
        <mxCell id="lkg-JrvjIJRry8kN40-e-10" value="+ConfigsAdmin(): LIST[]" style="text;strokeColor=none;fillColor=none;align=left;verticalAlign=top;spacingLeft=4;spacingRight=4;overflow=hidden;rotatable=0;points=[[0,0.5],[1,0.5]];portConstraint=eastwest;whiteSpace=wrap;html=1;" vertex="1" parent="lkg-JrvjIJRry8kN40-e-7">
          <mxGeometry y="78" width="270" height="26" as="geometry" />
        </mxCell>
        <mxCell id="lkg-JrvjIJRry8kN40-e-11" value="&amp;lt;&amp;lt;Mediacao&amp;gt;&amp;gt;&lt;div&gt;Notificacoes de bloqueio&lt;/div&gt;" style="swimlane;fontStyle=0;childLayout=stackLayout;horizontal=1;startSize=26;fillColor=none;horizontalStack=0;resizeParent=1;resizeParentMax=0;resizeLast=0;collapsible=1;marginBottom=0;whiteSpace=wrap;html=1;" vertex="1" parent="1">
          <mxGeometry x="290" y="1140" width="270" height="78" as="geometry" />
        </mxCell>
        <mxCell id="lkg-JrvjIJRry8kN40-e-12" value="+TempodeBlockRestante(): int" style="text;strokeColor=none;fillColor=none;align=left;verticalAlign=top;spacingLeft=4;spacingRight=4;overflow=hidden;rotatable=0;points=[[0,0.5],[1,0.5]];portConstraint=eastwest;whiteSpace=wrap;html=1;" vertex="1" parent="lkg-JrvjIJRry8kN40-e-11">
          <mxGeometry y="26" width="270" height="26" as="geometry" />
        </mxCell>
        <mxCell id="lkg-JrvjIJRry8kN40-e-13" value="+ Notificação(): string" style="text;strokeColor=none;fillColor=none;align=left;verticalAlign=top;spacingLeft=4;spacingRight=4;overflow=hidden;rotatable=0;points=[[0,0.5],[1,0.5]];portConstraint=eastwest;whiteSpace=wrap;html=1;" vertex="1" parent="lkg-JrvjIJRry8kN40-e-11">
          <mxGeometry y="52" width="270" height="26" as="geometry" />
        </mxCell>
        <mxCell id="lkg-JrvjIJRry8kN40-e-14" value="&amp;lt;&amp;lt;Mediacao&amp;gt;&amp;gt;&lt;div&gt;Notificacoes de Limite&lt;/div&gt;" style="swimlane;fontStyle=0;childLayout=stackLayout;horizontal=1;startSize=26;fillColor=none;horizontalStack=0;resizeParent=1;resizeParentMax=0;resizeLast=0;collapsible=1;marginBottom=0;whiteSpace=wrap;html=1;" vertex="1" parent="1">
          <mxGeometry x="1520" y="1140" width="270" height="78" as="geometry" />
        </mxCell>
        <mxCell id="lkg-JrvjIJRry8kN40-e-15" value="+TempodeUsoRestante(): int" style="text;strokeColor=none;fillColor=none;align=left;verticalAlign=top;spacingLeft=4;spacingRight=4;overflow=hidden;rotatable=0;points=[[0,0.5],[1,0.5]];portConstraint=eastwest;whiteSpace=wrap;html=1;" vertex="1" parent="lkg-JrvjIJRry8kN40-e-14">
          <mxGeometry y="26" width="270" height="26" as="geometry" />
        </mxCell>
        <mxCell id="lkg-JrvjIJRry8kN40-e-16" value="+ Notificação(): string" style="text;strokeColor=none;fillColor=none;align=left;verticalAlign=top;spacingLeft=4;spacingRight=4;overflow=hidden;rotatable=0;points=[[0,0.5],[1,0.5]];portConstraint=eastwest;whiteSpace=wrap;html=1;" vertex="1" parent="lkg-JrvjIJRry8kN40-e-14">
          <mxGeometry y="52" width="270" height="26" as="geometry" />
        </mxCell>
        <mxCell id="lkg-JrvjIJRry8kN40-e-86" style="rounded=0;orthogonalLoop=1;jettySize=auto;html=1;exitX=0.5;exitY=1;exitDx=0;exitDy=0;entryX=0.5;entryY=0;entryDx=0;entryDy=0;startArrow=classic;startFill=0;endArrow=none;dashed=1;" edge="1" parent="1" source="lkg-JrvjIJRry8kN40-e-17" target="lkg-JrvjIJRry8kN40-e-22">
          <mxGeometry relative="1" as="geometry" />
        </mxCell>
        <mxCell id="lkg-JrvjIJRry8kN40-e-89" value="Use" style="edgeLabel;html=1;align=center;verticalAlign=middle;resizable=0;points=[];" vertex="1" connectable="0" parent="lkg-JrvjIJRry8kN40-e-86">
          <mxGeometry x="-0.2979" y="3" relative="1" as="geometry">
            <mxPoint as="offset" />
          </mxGeometry>
        </mxCell>
        <mxCell id="lkg-JrvjIJRry8kN40-e-87" style="rounded=0;orthogonalLoop=1;jettySize=auto;html=1;exitX=0.5;exitY=1;exitDx=0;exitDy=0;startArrow=classic;startFill=0;endArrow=none;dashed=1;" edge="1" parent="1" source="lkg-JrvjIJRry8kN40-e-17" target="lkg-JrvjIJRry8kN40-e-24">
          <mxGeometry relative="1" as="geometry" />
        </mxCell>
        <mxCell id="lkg-JrvjIJRry8kN40-e-90" value="Use" style="edgeLabel;html=1;align=center;verticalAlign=middle;resizable=0;points=[];" vertex="1" connectable="0" parent="lkg-JrvjIJRry8kN40-e-87">
          <mxGeometry x="0.052" y="-2" relative="1" as="geometry">
            <mxPoint as="offset" />
          </mxGeometry>
        </mxCell>
        <mxCell id="lkg-JrvjIJRry8kN40-e-17" value="&amp;lt;&amp;lt;Componente Serviço&amp;gt;&amp;gt;&lt;div&gt;Ativar Modo de Emergencia&lt;/div&gt;" style="swimlane;fontStyle=0;childLayout=stackLayout;horizontal=1;startSize=26;fillColor=none;horizontalStack=0;resizeParent=1;resizeParentMax=0;resizeLast=0;collapsible=1;marginBottom=0;whiteSpace=wrap;html=1;" vertex="1" parent="1">
          <mxGeometry x="4020" y="536" width="270" height="78" as="geometry" />
        </mxCell>
        <mxCell id="lkg-JrvjIJRry8kN40-e-18" value="+ ModoDeEmergencia(): bool" style="text;strokeColor=none;fillColor=none;align=left;verticalAlign=top;spacingLeft=4;spacingRight=4;overflow=hidden;rotatable=0;points=[[0,0.5],[1,0.5]];portConstraint=eastwest;whiteSpace=wrap;html=1;" vertex="1" parent="lkg-JrvjIJRry8kN40-e-17">
          <mxGeometry y="26" width="270" height="26" as="geometry" />
        </mxCell>
        <mxCell id="lkg-JrvjIJRry8kN40-e-19" value="+ AppUnblock(): String" style="text;strokeColor=none;fillColor=none;align=left;verticalAlign=top;spacingLeft=4;spacingRight=4;overflow=hidden;rotatable=0;points=[[0,0.5],[1,0.5]];portConstraint=eastwest;whiteSpace=wrap;html=1;" vertex="1" parent="lkg-JrvjIJRry8kN40-e-17">
          <mxGeometry y="52" width="270" height="26" as="geometry" />
        </mxCell>
        <mxCell id="lkg-JrvjIJRry8kN40-e-22" value="&amp;lt;&amp;lt;Componente Serviço&amp;gt;&amp;gt;&lt;div&gt;Ativar Modo de Controle Parental&lt;/div&gt;" style="swimlane;fontStyle=0;childLayout=stackLayout;horizontal=1;startSize=26;fillColor=none;horizontalStack=0;resizeParent=1;resizeParentMax=0;resizeLast=0;collapsible=1;marginBottom=0;whiteSpace=wrap;html=1;" vertex="1" parent="1">
          <mxGeometry x="3900" y="750" width="180.38" height="52" as="geometry" />
        </mxCell>
        <mxCell id="lkg-JrvjIJRry8kN40-e-23" value="+ StatusBlock(): bool" style="text;strokeColor=none;fillColor=none;align=left;verticalAlign=top;spacingLeft=4;spacingRight=4;overflow=hidden;rotatable=0;points=[[0,0.5],[1,0.5]];portConstraint=eastwest;whiteSpace=wrap;html=1;" vertex="1" parent="lkg-JrvjIJRry8kN40-e-22">
          <mxGeometry y="26" width="180.38" height="26" as="geometry" />
        </mxCell>
        <mxCell id="lkg-JrvjIJRry8kN40-e-24" value="&amp;lt;&amp;lt;Componente Serviço&amp;gt;&amp;gt;&lt;div&gt;Ativar Modo de Controle Parental&lt;/div&gt;" style="swimlane;fontStyle=0;childLayout=stackLayout;horizontal=1;startSize=26;fillColor=none;horizontalStack=0;resizeParent=1;resizeParentMax=0;resizeLast=0;collapsible=1;marginBottom=0;whiteSpace=wrap;html=1;" vertex="1" parent="1">
          <mxGeometry x="4220" y="750" width="180.38" height="52" as="geometry" />
        </mxCell>
        <mxCell id="lkg-JrvjIJRry8kN40-e-25" value="+ StatusBlock(): bool" style="text;strokeColor=none;fillColor=none;align=left;verticalAlign=top;spacingLeft=4;spacingRight=4;overflow=hidden;rotatable=0;points=[[0,0.5],[1,0.5]];portConstraint=eastwest;whiteSpace=wrap;html=1;" vertex="1" parent="lkg-JrvjIJRry8kN40-e-24">
          <mxGeometry y="26" width="180.38" height="26" as="geometry" />
        </mxCell>
        <mxCell id="lkg-JrvjIJRry8kN40-e-37" style="rounded=0;orthogonalLoop=1;jettySize=auto;html=1;exitX=0.5;exitY=1;exitDx=0;exitDy=0;entryX=0.589;entryY=-0.038;entryDx=0;entryDy=0;entryPerimeter=0;dashed=1;" edge="1" parent="1" source="nidFudNCeoTU9eq047Zy-55" target="nidFudNCeoTU9eq047Zy-59">
          <mxGeometry relative="1" as="geometry" />
        </mxCell>
        <mxCell id="lkg-JrvjIJRry8kN40-e-41" value="Use" style="edgeLabel;html=1;align=center;verticalAlign=middle;resizable=0;points=[];" vertex="1" connectable="0" parent="lkg-JrvjIJRry8kN40-e-37">
          <mxGeometry x="-0.1803" y="-2" relative="1" as="geometry">
            <mxPoint as="offset" />
          </mxGeometry>
        </mxCell>
        <mxCell id="lkg-JrvjIJRry8kN40-e-38" style="rounded=0;orthogonalLoop=1;jettySize=auto;html=1;exitX=0.5;exitY=1;exitDx=0;exitDy=0;entryX=0.83;entryY=-0.038;entryDx=0;entryDy=0;entryPerimeter=0;dashed=1;" edge="1" parent="1" source="nidFudNCeoTU9eq047Zy-57" target="nidFudNCeoTU9eq047Zy-59">
          <mxGeometry relative="1" as="geometry" />
        </mxCell>
        <mxCell id="lkg-JrvjIJRry8kN40-e-42" value="Use" style="edgeLabel;html=1;align=center;verticalAlign=middle;resizable=0;points=[];" vertex="1" connectable="0" parent="lkg-JrvjIJRry8kN40-e-38">
          <mxGeometry x="-0.1333" y="2" relative="1" as="geometry">
            <mxPoint x="-1" as="offset" />
          </mxGeometry>
        </mxCell>
        <mxCell id="lkg-JrvjIJRry8kN40-e-43" style="rounded=0;orthogonalLoop=1;jettySize=auto;html=1;exitX=0.5;exitY=0;exitDx=0;exitDy=0;entryX=0.458;entryY=1;entryDx=0;entryDy=0;entryPerimeter=0;dashed=1;" edge="1" parent="1" source="nidFudNCeoTU9eq047Zy-35" target="nidFudNCeoTU9eq047Zy-9">
          <mxGeometry relative="1" as="geometry" />
        </mxCell>
        <mxCell id="lkg-JrvjIJRry8kN40-e-57" value="Use" style="edgeLabel;html=1;align=center;verticalAlign=middle;resizable=0;points=[];" vertex="1" connectable="0" parent="lkg-JrvjIJRry8kN40-e-43">
          <mxGeometry x="-0.0828" y="-1" relative="1" as="geometry">
            <mxPoint as="offset" />
          </mxGeometry>
        </mxCell>
        <mxCell id="lkg-JrvjIJRry8kN40-e-46" style="rounded=0;orthogonalLoop=1;jettySize=auto;html=1;exitX=0.5;exitY=0;exitDx=0;exitDy=0;entryX=0.536;entryY=1;entryDx=0;entryDy=0;entryPerimeter=0;dashed=1;" edge="1" parent="1" source="nidFudNCeoTU9eq047Zy-42" target="nidFudNCeoTU9eq047Zy-9">
          <mxGeometry relative="1" as="geometry" />
        </mxCell>
        <mxCell id="lkg-JrvjIJRry8kN40-e-60" value="Use" style="edgeLabel;html=1;align=center;verticalAlign=middle;resizable=0;points=[];" vertex="1" connectable="0" parent="lkg-JrvjIJRry8kN40-e-46">
          <mxGeometry x="-0.0454" y="-2" relative="1" as="geometry">
            <mxPoint as="offset" />
          </mxGeometry>
        </mxCell>
        <mxCell id="lkg-JrvjIJRry8kN40-e-50" style="rounded=0;orthogonalLoop=1;jettySize=auto;html=1;exitX=0.5;exitY=1;exitDx=0;exitDy=0;entryX=0.63;entryY=0.038;entryDx=0;entryDy=0;entryPerimeter=0;dashed=1;" edge="1" parent="1" source="nidFudNCeoTU9eq047Zy-39" target="nidFudNCeoTU9eq047Zy-46">
          <mxGeometry relative="1" as="geometry" />
        </mxCell>
        <mxCell id="lkg-JrvjIJRry8kN40-e-55" value="Use" style="edgeLabel;html=1;align=center;verticalAlign=middle;resizable=0;points=[];" vertex="1" connectable="0" parent="lkg-JrvjIJRry8kN40-e-50">
          <mxGeometry x="-0.3789" relative="1" as="geometry">
            <mxPoint as="offset" />
          </mxGeometry>
        </mxCell>
        <mxCell id="lkg-JrvjIJRry8kN40-e-52" style="rounded=0;orthogonalLoop=1;jettySize=auto;html=1;exitX=0.5;exitY=1;exitDx=0;exitDy=0;entryX=0.8;entryY=-0.038;entryDx=0;entryDy=0;entryPerimeter=0;dashed=1;" edge="1" parent="1" source="nidFudNCeoTU9eq047Zy-42" target="nidFudNCeoTU9eq047Zy-46">
          <mxGeometry relative="1" as="geometry" />
        </mxCell>
        <mxCell id="lkg-JrvjIJRry8kN40-e-56" value="Use" style="edgeLabel;html=1;align=center;verticalAlign=middle;resizable=0;points=[];" vertex="1" connectable="0" parent="lkg-JrvjIJRry8kN40-e-52">
          <mxGeometry x="-0.3098" y="4" relative="1" as="geometry">
            <mxPoint as="offset" />
          </mxGeometry>
        </mxCell>
        <mxCell id="lkg-JrvjIJRry8kN40-e-73" style="rounded=0;orthogonalLoop=1;jettySize=auto;html=1;exitX=0.5;exitY=0;exitDx=0;exitDy=0;entryX=0.507;entryY=1.038;entryDx=0;entryDy=0;entryPerimeter=0;dashed=1;" edge="1" parent="1" source="lkg-JrvjIJRry8kN40-e-1" target="nidFudNCeoTU9eq047Zy-24">
          <mxGeometry relative="1" as="geometry" />
        </mxCell>
        <mxCell id="lkg-JrvjIJRry8kN40-e-80" value="Use" style="edgeLabel;html=1;align=center;verticalAlign=middle;resizable=0;points=[];" vertex="1" connectable="0" parent="lkg-JrvjIJRry8kN40-e-73">
          <mxGeometry x="-0.1062" y="3" relative="1" as="geometry">
            <mxPoint as="offset" />
          </mxGeometry>
        </mxCell>
      </root>
    </mxGraphModel>
  </diagram>
</mxfile>
